<mxfile host="app.diagrams.net" modified="2022-02-15T13:35:24.928Z" agent="5.0 (Windows NT 10.0; Win64; x64) AppleWebKit/537.36 (KHTML, like Gecko) Chrome/98.0.4758.82 Safari/537.36" etag="FqPNpqkXM2M3t863cRwu" version="16.5.6" type="github">
  <diagram id="RlGzEQcLpNzfZDDvSEop" name="ページ1">
    <mxGraphModel dx="1473" dy="796" grid="1" gridSize="10" guides="1" tooltips="1" connect="1" arrows="1" fold="1" page="1" pageScale="1" pageWidth="1169" pageHeight="827" math="0" shadow="0">
      <root>
        <mxCell id="0" />
        <mxCell id="1" parent="0" />
        <mxCell id="uTMzhVTNKQnZPhbrhFbp-1" value="" style="shape=image;html=1;verticalAlign=top;verticalLabelPosition=bottom;labelBackgroundColor=#ffffff;imageAspect=0;aspect=fixed;image=https://cdn4.iconfinder.com/data/icons/ionicons/512/icon-social-github-128.png" vertex="1" parent="1">
          <mxGeometry x="270" y="220" width="128" height="128" as="geometry" />
        </mxCell>
        <mxCell id="uTMzhVTNKQnZPhbrhFbp-3" value="" style="outlineConnect=0;dashed=0;verticalLabelPosition=bottom;verticalAlign=top;align=center;html=1;shape=mxgraph.aws3.dynamo_db;fillColor=#2E73B8;gradientColor=none;" vertex="1" parent="1">
          <mxGeometry x="1020" y="208.5" width="134.22" height="151" as="geometry" />
        </mxCell>
        <mxCell id="uTMzhVTNKQnZPhbrhFbp-4" value="" style="sketch=0;aspect=fixed;html=1;points=[];align=center;image;fontSize=12;image=img/lib/mscae/Docker.svg;" vertex="1" parent="1">
          <mxGeometry x="560" y="223.5" width="147.56" height="121" as="geometry" />
        </mxCell>
        <mxCell id="uTMzhVTNKQnZPhbrhFbp-5" value="" style="shape=image;verticalLabelPosition=bottom;labelBackgroundColor=default;verticalAlign=top;aspect=fixed;imageAspect=0;image=data:image/png,iVBORw0KGgoAAAANSUhEUgAAAtwAAALXCAYAAAC+bpeqAAAAAXNSR0IArs4c6QAAAARnQU1BAACxjwv8YQUAAAAZdEVYdFNvZnR3YXJlAEFkb2JlIEltYWdlUmVhZHlxyWU8AABVsUlEQVR4Xu3dTYht53nge7f64h5ooDQaNVyhNNyJeuLuwW3dmZLQRqO0PEvbfbsVyKDdBLUyMIbABTktDxMO0U1D2wrIhGAHbpyTOD4hODLyByaOiX2iGNtxQD4EyY6tDUoURBM80d1PqZZdZ+upqv2xPt73Wb/BD8GjXXXq7FX17n+t8+613vHmm28CAAATSYcAAMA40iEAADCOdAgAAIwjHQIAAONIhwAAwDjSIQAAMI50CAAAjCMdAgAA40iHAADAONIhAAAwjnQIAACMIx0CAADjSIcAAMA40iEAADCOdAgAAIwjHQIAAONIhwAAwDjSIQAAMI50CADs53+98OV7B39/47mHXvvQrz+86x+e+90HLj4u+zxAXekQAPixIaY3v/T0u7/7U+/70N/85COfeumf/B+bc28eaPi4zcv/+mf/Z3y+Icr/8fY33pn9+UDf0iEArNkbNz9zf8R1BPGFQM7ieWxnf9YQ4c6GQw3pEADW5Id3Xr4nzmBfCOwshpewufMT/+Zrf/ue9/9inAHPvnagfekQAKprOLKvshHf0J90CABVxXaRiNaI152Y7Uqc+f7Bz3/w5+IXh+zvCbQjHQJANXFW+MKbHdOI7dTZnm/7vaFd6RAAqog3H8bZ4CRUq9nELxS2m0B70iEA9C7CcyWhvcsZb2hMOgSAXkVoFt06cqiz8LbHG5aXDoE6XvjLV+4NT338Kw+HJz/6xUcf+eWbT+9j+Jgbf/AXD8XnuP3Sxk05aFaEZYU3Q05gE9tqsucMmEc6BPo0hPVjH/6jJx78hd+69Y6f/R+bc2+O5Ozzveu//c6zj994/r1DiGdfC8wpLu+30u0je4uz/raZwDLSIdCHm3/60v1xxjoC+DyGs0ie2lmED2fEnQVnTnFWO7ZNbIPSWe39bOIOmtlzCUwnHQLteu75bz0QZ7CH0D2P3pZs7vsPz74YZ8DjF4Ls7wBjiOtpO6t9lE3c7Ocfb3/DL8cwk3QItCW2bUTARszuxG3rzuI7zsLf+f7r3rjFaOIsbYTjTkhygPhlxSUEYR7pEGhD7JG+sBc7C9qenG07iTP02d8V9mULyahsMYEZpENgOXEmOM4Ix5nhJFor2MQvEfHLRPb3h8vEFojzy/1l4cjxNnF1l+w5B8aRDoH5RWh3um3kaPFLRbzRMns+4KKIbfu1pxX7urPnHjhdOgTmFdFZ+Iz2teKMt60mXGbFd4ycXUS3G+XA+NIhMI+IzDWH9o6z63u7rjcXRWxvQ9B+7RnFLzeuYALjSofAtGL7SLyBMCJzJzrZPiexhz173lgXsb0c0Q3jSofAdOLNghGVO5HJjthm4mz3eont5YluGE86BMbnrPZRnO1eIbHdDtEN40iHwLjijov2ah8v9na7Zfw6iO32iG44XToExhNnaLfR6Kz2ieIXFlcyqU1st0t0w2nSITAOW0hGt3Hd7prEdvtENxwvHQKnif3asQ0iCUZOt4kbBGXPO30S2/0Q3XCcdAgcL/Ya2689vfiFJnv+6YvY7o/ohsOlQ+A4YnteortvYrtfohsOkw6Bw4ntZYjuPont/olu2F86BA4jtpcluvsitusQ3bCfdAjsT2y3QXT3QWzXI7rheukQ2I/YbovobpvYrkt0w9XSIXA9sd0m0d0msV2f6IbLpUPgamK7baK7LWJ7PUQ35NIhcDmx3QfR3QaxvT6iG94uHQI5sd0X0b0ssb1eohvulg6BtxPbfRLdyxDbiG74sXQI3E1s9010z0tsMxDd8JZ0CPyY2K5BdM9DbLNLdIPghiuJ7VpE97TENpcR3axdOgTEdlWiexpim+uIbtYsHcLaie3aRPe4xDb7Et2sVTqENRPb6yC6xyG2OZToZo3SIayV2F4X0X0asc2xRDdrkw5hjcT2Oonu44htTiW6WZN0CGsjttdNdB9GbDMW0c1apENYE7FNEN37EduMTXSzBukQ1kJsc5HovprYZiqim+rSIayB2CYjunNim6mJbipLh1Cd2OYqovtuYpu5iG6qSodQmdhmH6L7LWKbuYluKkqHUJXY5hBrj26xzVJEN9WkQ6hIbHOMtUa32GZpoptK0iFUI7Y5xdqiW2zTCtFNFekQKhHbjGEt0S22aY3opoJ0CFWIbcZUPbrFNq0S3fQuHUIFYpspVI1usU3rRDc9S4fQO7HNlKpFt9imF6KbXqVD6JnYZg5Volts0xvRTY/SIfRKbDOn3qNbbNMr0U1v0iH0SGyzhF6jW2zTO9FNT9Ih9EZss6TeoltsU4XophfpEHoitmlBL9EttqlGdNODdAi9ENu0pPXoFttUJbppXTqEHohtWtRqdIttqhPdtCwdQuvENi1rLbrFNmshumlVOoSWiW160Ep0i23WRnTTonQIrRLb9GTp6BbbrJXopjXpEFoktunRUtEttlk70U1L0iG0RmzTs7mjW2zDW0Q3rUiH0BKxTQVzRbfYhruJblqQDqEVYptKpo5usQ050c3S0iG0QGxT0VTRLbbhaqKbJaVDWJrYprKxo1tsw35EN0tJh7Aksc0ajBXdYhsOI7pZQjqEpYht1uTU6BbbcBzRzdzSISxBbLNGx0a32IbTiG7mlA5hbmKbNTsmun/w8x/8uW00CG44gehmLukQ5iS2QXTDUkQ3c0iHMBexDT8mumEZopuppUOYg9iGtxPdsAzRzZTSIUxNbMPlRDcsQ3QzlXQIUxLbcD3RDcsQ3UwhHcJUxDbsT3TDMkQ3Y0uHMAWxDYcT3bAM0c2Y0iGMTWzD8UQ3LEN0M5Z0CGMS23A60Q3LEN2MIR3CWMQ2jEd0wzJEN6dKhzAGsQ3jE91d2MRzHoEWoZb8fzokujlFOoRTiW2Yjuhu2llsD8+76K5FdHOsdAinENswPdHdpLtieyC6axHdHCMdwrHENsxHdDclje2B6K5FdHOodAjHENswP9HdhCtjeyC6axHdHCIdwqHENixHdC9qr9geiO5aRDf7SodwCLENyxPdizgotgeiuxbRzT7SIexLbEM7RPesjortgeiuRXRznXQI+xDb0B7RPYuTYnsgumsR3VwlHcJ1xDa0S3RPapTYHojuWkQ3l0mHcBWxXUvE2Z3vv35P/Df7//RJdE9i1NgeiO5aRDeZdAiXEdu17EaZ6K5FdI9qktgeiO5aRDe70iFkxHYtl8WY6K5FdI9i0tgeiO5aRDcXpUPYJbZruS7CRHctovsks8T2QHTXIroZpEO4SGzXsm98ie5aRPdRZo3tgeiuRXQT0iEMxHYth0aX6K5FdB9kkdgeiO5aRDfpEILYruWY2AqiuxbRvZdFY3sgumsR3euWDkFs13JsbA9Edy2i+0pNxPZAdNciutcrHbJuYruWU2N7ILprEd2ppmJ7ILprEd3rlA5ZL7Fdy1ixPRDdtYjuuzQZ2wPRXYvoXp90yDqJ7VrGju2B6K5FdJ9pOrYHorsW0b0u6ZD1Edu1TBXbA9Fdy8qju4vYHojuWkT3eqRD1kVs1zJ1bA9Edy0rje6uYnsgumsR3euQDlkPsV3LXLE9EN21rCy6u4ztgeiuRXTXlw5ZB7Fdy9yxPRDdtawkuruO7YHorkV015YOqU9s17JUbA9Edy3Fo7tEbA9Edy2iu650SG1iu5alY3sgumspGt2lYnsgumsR3TWlQ+oS27W0EtsD0V1LseguGdsD0V2L6K4nHVKT2K6ltdgeiO5aikR36dgeiO5aRHct6ZB6xHYtrcb2QHTX0nl0ryK2B6K7FtFdRzqkFrFdS+uxPRDdtXQa3auK7YHorkV015AOqUNs19JLbA9Edy2dRfcqY3sgumsR3f1Lh9QgtmvpLbYHoruWTqJ71bE9EN21iO6+pUP6J7Zr6TW2B6K7lsajW2xfILprEd39Sof0TWzX0ntsD0R3LY1Gt9hOiO5aRHef0iH9Etu1VIntgeiupbHoFttXEN21iO7+pEP6JLZrqRbbA9FdSyPRLbb3ILprEd19SYf0R2zXUjW2B6K7loWjW2wfQHTXIrr7kQ7pi9iupXpsD0R3LQtFt9g+guiuRXT3IR3SD7Fdy1pieyC6a5k5usX2CUR3LaK7femQPojtWtYW2wPRXctM0S22RyC6axHdbUuHtE9s17LW2B6I7lomjm6xPSLRXYvoblc6pG1iu5a1x/ZAdNcyUXSL7QmI7lpEd5vSIe0S27WI7buJ7lpGjm6xPSHRXYvobk86pE1iuxaxnRPdtYwU3WJ7BqK7FtHdlnRIe8R2LWL7aqK7lhOjW2zPSHTXIrrbkQ5pi9iuRWzvR3TXcmx0i+35ie5aRHcb0iHtENu1iO3DiO5afP/3Q3TXIrqXlw5pg9iuRWwcR3TX4uegH6K7FtG9rHTI8sR2LSLjNKK7Fj8P/RDdtYju5aRDliW2axEX4xDdtfi56IforkV0LyMdshyxXYuoGJforsXPRz9Edy2ie37pkGWI7VrExDREdy1+TvohumsR3fNKh8xPbNciIqYlumvx89IP0V2L6J5POmReYrsW8TAP0V2Ln5t+iO5aRPc80iHzEdu1iIZ5ie5a/Pz0Q3TXIrqnlw6Zh9iuRSwsQ3TX4ueoH6K7FtE9rXTI9MR2LSJhWaK7Fj9P/RDdtYju6aRDpiW2axEHbRDdtfi56oforkV0TyMdMh2xXYsoaIvorsXPVz9Edy2ie3zpkGmI7VrEwLTeuPmZ+7P5dUR3LX7O+iG6axHd40qHjE9s1yICpvUPz/3uA9sFf/Pyv/7Z/5n9/+uI7lr8vPVDdNciuseTDhmX2K7Fi/+0htgeFnzRTfBz1w/RXYvoHkc6ZDxiuxYv+tPaje2B6Cb4+euH6K5FdJ8uHTIOsV2LF/tpXRbbA9FN8HPYD9Fdi+g+TTrkdGK7Fi/y07outgeim+DnsR+iuxbRfbx0yGnEdi1e3Ke1b2wPRDfBz2U/RHctovs46ZDjie1avKhP69DYHohugp/PfojuWkT34dIhxxHbtXgxn9axsT0Q3QQ/p/0Q3bWI7sOkQw4ntmvxIj6tU2N7ILoJfl77IbprEd37S4ccRmzX4sV7WmPF9kB0E/zc9kN01yK695MO2Z/YrsWL9rTGju2B6Cb4+e2H6K5FdF8vHbIfsV2LF+tpTRXbA9FN8HPcD9Fdi+i+WjrkemK7Fi/S04pFeLsgTxbbA9FN8PPcD9Fdi+i+XDrkamK7Fi/O05r7BVV0E/xc90N01yK6c+mQy4ntWrwoT+9vfvKRT2WL8pREN8HPdz9Edy2i++3SITmxXYsX4+lF+GaL8RxEN8HPeT9Edy2i+27pkLcT27V4EZ7e5peefvd20Z183/ZVRDfBz3s/RHctovvH0iF3E9u1ePGd3hs3P3P/drFdNLYHopvg574forsW0f2WdMiPie1avOhO74d3Xr6ntRdL0U3w898P0V2L6BbcVxLbtXixncd3f+p9H8oW3KWJboJ1oB+iu5a1R3c6RGxX40V2Hn9/47mHtgtrE1tJMqKbYD3oh+iuZc3RnQ7XTmzX4sV1Hi1uJcmIboJ1oR+iu5a1Rnc6XDOxXYsX1fm0upUkI7oJ1od+iO5a1hjd6XCtxHYtXkzn09JVSfYlugmP33j+vdlxpj2iu5a1RXc6XCOxXYvYntcSd5Mcg+hma/PkR7/4aHacaY/ormVN0Z0O10Zs1yK25/Xah3794e3C2dXZ7YtEN1ub557/1gPZcaY9oruWtUR3OlwTsV2L2J5fhRc+0U28DsTrQXacaY/ormUN0Z0O10Js1yK253d+djtdQHsjurGG9EV011I9utPhGojtWrxQLqPai53oxn7uvojuWipHdzqsTmzXIraXcX6Tm3TR7JnoXr3NC3/5yr3ZMaZNoruWqtGdDisT27WI7eX0emWSfYjudXvwF37rVnZ8aZforqVidKfDqsR2LWJ7OT1ed/tQonvdbC3pj+iupVp0p8OKxHYtYntZPd1V8hSie9U28bqRHV/aJbprqRTd6bAasV2L2F7WD++8fM92ISx9dvsi0b1ej/zyzaezY0vbRHctVaI7HVYitmsR28urdCnAfYnu1XJDnE6J7loqRHc6rEJs1yK221D5zZJXEd3r5A2U/RLdtfQe3emwArFdi9huQyx224VvNdtJdonuVXKWu2Oiu5aeozsd9k5s1yK227HG7SS7RPf6OMvdN9FdS6/RnQ57JrZrEdttidjMFsC1Ed2r4yx350R3LT1GdzrsldiuRWy3Z7vQrXY7yS7RvS7OcvdPdNcS7yfKjnOr0mGPxHYtYrs9//Dc7z6QLXprJrpXZXPzT1+6Pzue9EN013LsGryEdNgbsV2L2G7TD37+gz+XLXhrJ7rX47EP/9ET2bGkL6K7lrgRW3acW5MOeyK2axHb7YqwzBY7RPeKbO58//V7smNJX0R3KZs4IZQd55akw16I7VrEdttiUdtZ5LhAdK/DUx//ysPZcaQ/oruUTWx7zI5zK9JhD8R2LWK7bf/rhS/fmyxw7BDd9XnzZC2iu444jnE8s+PcgnTYOrFdi9hun+tv7090l7eJ16DsGNIn0V3HsevvHNJhy8R2LWK7D94weRjRXduTH/3io9nxo1+iu47NLz397uwYLy0dtkps1yK2+xHvAs8WNi4nuuuyraQm0V3GJrZBZsd4SemwRWK7FrHdFy9CxxHdZblaSVGiu4YWb4qTDlsjtmsR2/3ZLmCuUHIk0V3TjT/4i4ey40b/RHcNrW0tSYetiX++yxY8+iO2+xMvPtvFS3CfQHTX4yY4tYnuEjZxHLPju4R02BIvOHWI7T65JOA4RHct8a+u2fGiDtHdv5buQpkOW/H4jeffu13YNrsLHf0R2/0S3OMR3aW4POAKiO7ubd64+Zn7s2M7t3TYguee/9YDsaDtLHB0SGz3Le7elSxiHEl01xGvU9mxohbR3bdW3kCZDpcWZw22i5nYLkBs989Nb8YnumtwPe71EN1da+K27+lwad4kWYPYrkFwT0N09++RX775dHaMqEl096uFs9zpcElxxiBb2OiL2K5DcE9HdPfNGyfXR3R3a/Gz3OlwKS/85Sv3bhcxW0k6J7ZrEdzTEt1d22THhtpEd5+WvmJJOlyKrST9E9v1CO7pie5ubeJEUXZsqE10d2nRW76nwyU89fGvPJwsZnREbNckuOchuvskuNdLdPfnBz//wZ/LjuUc0uHc7nz/9Xu2C5etJB0T23UJ7vmI7v7EyaLsmLAOors7i20DS4dzi3d6ZwsZfRDbtbkO97xEd18EN6K7L0u9eTIdzskbJfsmtutzp8n5ie5+CG6C6O7HsevrqdLhnJzd7pfYXgfBvQzR3YfHPvxHT2THgfUR3d3Y/PDOy/dkx3BK6XAuzm73S2yvRyxMsUDtLFjMQHS3z81vuEh09+Hvbzz3UHb8ppQO5+Lsdp/E9vpsFyjBvRDR3TbBzS7R3b4lrsmdDufg7HafxPY6xW1xs0WLeYjudgluMqK7ebNfrSQdziH2vWWLF+0S2+sVZwOSBYsZie42CW4uI7rb9sbNz9yfHbeppMOpue52f8T2um1+6el3ZwsW8xLd7RHcXEV0tyte17JjNpV0OLUnP/rFR7OFizaJbeINJtmCxfxEd1sEN9cR3W06di09Vjqc2n3/4dkXs4WL9ohtwvmlAb1xshGiux0uC8g+RHeTZt3HnQ6ndPNPX7p/u0jZTtIBsc1FsTjtLFYsSHS3wY1v2Jfobs4mTiZlx2oK6XBKj994/r3ZokVbxDa7IvCSBYsFie7lCW4OIbrbMuf1uNPhlGwnaZ/YJuONk20S3csS3BxKdLdjzjdOpsOp2E7SPrHNZeISStmCxfJE93LinhLZcwtXEd1tmPMGOOlwKraTtE1sc53tAmUfd6NE9zIEN8cS3cuL5z87NlNIh1N58Bd+61a2YLE8sc0+3ACnbaJ7drPfrY5aRPfiZvsZTodTcLObdolt9uV63O0T3fOJ9yRlzyUcQnQvahPPf3ZcxpYOp/Dc8996IFuwWJbY5hA/vPPyPbFA7SxYNEZ0z8NNbxiL6F7OXJcGTIdTsH+7PWKbY0TMZYsWbRHd04u7JmfPIRxDdC+jXHDbv90Wsc2xbCvph+ieVvzLbfb8wbFE9/zmuhZ3OpzCdnGyf7sRYptTbRcp20o6Ibons7n90maWvZ+si+ie12sf+vVZrqWfDscWl01KFisWILYZww9+/oM/ly1ctEl0j88bJpmS6J5PqeC+8Qd/8VC2YDEvsc1YYs/bdqFylrsjontcj334j57Ini8Yi+ieR6ngjlvfZgsW8xHbjC0CLlu8aJfoHk+cSMqeKxhTxGD2s8x4SgV3XDopW7CYh9hmCv/w3O8+sF2snOXujOgehf3bTM4aOw/BzSjENlP6m5985FPZAkbbRPdp4qpb2fMDYxHb8ykV3NsFyhVKFiC2mZoXhX6J7uO5/jZTsq7OS3BzErHNXJzl7pfoPortJExGbM9PcHM0sc2cvED0TXQfxnYSpmItXUaZO026Bve8xDZL+O5Pve9D2UJGH0T3/mwnYQpiezmCm4OJbZbiutz9E9172dz5/uv3ZM9DC+68/sY9L7zyg3tvvvTy/U/92dcfHjz+J19+7yO/99mnd118zI3bf/VQfGzIPjfTEduL2ghuDiK2Wdrml55+d7KY0RHRfbW44lb2919ChHGE8mOf/uIT7/rEHz/7jv/3dzbn3jzR2ee57yOffDGi/MkvfO3R5775nQduv/qafesTENuL22THZQrpcEyCe3pim1a4K1r/RPelNs89/60Hsr/7HOKsdcTvhbjOYnlKZxEegR9nwwX46cR2EwQ3+4vnOHvuYW5v3PzM/bGA7SxodEZ0v90Sb5aMM8sRuBG7O/Hbgs2DH/vUrdiuEr8MZF8/lxPbbYj3H2XHZwrpcEyCe3r3/YdnX3SZKlrxt+95/y9mCxt9Ed13m+vsduORfZmzs99xBt6Z7+uJ7XbE61V2jKaQDsckuOchummJa3PXILrfEutr9vccS7zZMWI1ojXidSdme7OJbS/xi0P2d107sd2Wua7BHdLhmAT3fEQ3rfjH299453Yx86JSgOj+H28+9fGvTPKiHG987PBs9r7OznrHGzuzv/saie32zHWFkpAOxxQBuF2w3PhmJqKbVvz9jece2i5oXlwKWHN0T7F3O0I7rgASUboTqSUJb7HdqM0P77w822U+0+HYtouW4J6R6KYVP/j5D/5cLGo7ixwdWml0j3plktg6sqbQ3rXW8BbbbYqtj9nxmko6HFssWjuLGBMT3bQiQi1b7OjP2qI7vu7s73OM2KO9jc5VhvaOs6ubrOXKJmK7XXFCKDtmU0mHY4v4yxYzpiW6+/XqC9+5985zX33gG0999uGvPP7J937ukd98Ovz+fR9+8f97x/+zuc5n3vUbz8bjv/TYbz8Rn+Ovb3zpoficb9x5bZG75InuOlYU3ZsxLrkaYXn+ZsgsPtdsE2f746x/9rxVILbbFscnO25TSYdji7tzJYsZMxDd7fu72997ZwRxxPGtB3/11oVwfnMCm4j2iPEI8VdufnOWs0zxJko3xaljDdH9+I3n35v9HQ6x5u0j+4pfRuJGOtnz1zOx3bxZ92+HdDi2xz78R09kCxrzEN1tibPMQ2BfOGOdxfFczs6I337y1qNxFjz7mscgumupHN2xZmZf+76c1T7Y2dnu7Lnskdhu39z7t0M6HFtcUilb1JiP6F7WENkRthG4O8HbkrMz4LGNZYqz36K7lqLRvbn5py8d/b0fd16MgNwJSvYQv6T0vrdbbPdh80tPvzs7flNKh2OLxStZ1JiZ6J5f7MOO7RsRsjth24NNbHGJM99j7v0W3bVUi+5jt5LEXuS44UsWkhxk0+uVTMR2NzbxOpQdwymlw7FF5G0XMlcqaYDonl7EaeyPbmS7yFg28YvDWFtORHctVaL72Gtux3W1bSEZ1SZuCJQ9160S2/1YYjtJSIdT2C5mgrsRonsaEdqxFSPidCdWKzk76x1n7rPn4BCiu5beo/vYdTFuYR6BuBOMjCD+xaCHq5iI7b4ssZ0kpMMpuFJJW0T3eFYS2rtGCW/RXUvH0X3UDW5i68M2DMX2hOJfDm6/+lqzr1ViuzuLbCcJ6XAKT370i48mixwLEt2ni/3NEZ87MbomJ281Ed21dBjdm2P2bXtz5HxajW6x3Z9j16cxpMMpeONkm0T3ceLM7vke7SxC12gTlznMnqt9iO5aeoru+NfX7Gu5itieX2vRLba7tInjlh3POaTDqWwXN/u4GyS69xc3qen4qiOTi19C4vKH2XN3HdFdSw/RHX9W9jVcRWwvp5XoFtt9iteX7HjOJR1OpYF9elxCdF8vrjyyjUqhfb2zbSbHXEpQdNfScnSL7T4tHd1iu1+vfejXF73cZDqcihvgtE105yIcndU+XJztPubmOaK7lhajO9a67M+8ithux1LRLbb7tfTZ7ZAOpxIxt13sbCtpmOi+WwSjvdon2cQVXLLn9iqiu5aWovuYNU5st2fu6BbbfVv67HZIh1OKGwtkiyDtEN1vsYVkPHFL+0O3mIjuWlqIbrFdy1zRLbb71sLZ7ZAOp+TygH1Ye3Sv8Lrak4t/KYg3nWbP92VEdy1LRrfYrmnq6Bbb/Wvh7HZIh1OKBW+7+NlW0oG1Rnecjc2CkVFsDr1ZjuiuZYnoFtu1TRXdYrt/rZzdDulwalO+GYZxrSm64+yr2J6F6F65OaNbbK/D2NEttktY9Lrbu9Lh1OIWutnCSJvWEN0R294cOavNodfrFt21zBHdYntdxopusV3DsWvMVNLhHGIhzBZI2lQ5usX2Yg6+gonormXK6Bbb63RqdIvtMjbxepEd46Wkwzl482R/Kka32F6c6F65KaJbbK9bRHd2jK8jtsvYtPJGyYvS4RzufP/1e7YLozdPdqZSdIvtZojulRszusX26m2e++Z3Dt63K7braG0rySAdzuXxG8+/d3expH0VoltsN0d0r9wY0S22V09s09xWkkE6nIuz3P3qObrFdrNE98qdEt1ie/XENpu/v/HcQW/Gn1M6nJOz3P3qMbrFdvNE98odG91xAiebX0ZslyK2efNv3/P+X8yOcyvS4ZxikYxwy4KO9vUU3WK7G6J75abegym2SxHbNLtv+6J0OLenPv6Vh7OYow89RLfY7o7oXrmpXkDFdilim7O7Sba6b/uidLiEB3/ht25lMUcfWo5usd0t0b1yY0e32C5FbBOafZPkrnS4hJt/+tL923DzBsqOtRjdYrt7onvlxopusV2K2CY0dev266TDpTz24T96Igs5+tFSdIvtMkT3yp0a3WK7FLFN6Cq2QzpcijdQ1tBCdIvtcjZ/feNLB13uSXTXcmx0i+1SxDahu9gO6XBJtpbUsGR0i+16PvOu33g2O9bXEd11xHH84Z2XXfpvvcQ2ocvYDulwabaW1LBEdIvteo6N7YHo7l8cvziO2fG9jNguRWwTuo3tkA5b4KolNcwZ3WK7nlNjeyC6+yW2V09sE7qO7ZAOWxCRZj93DXNEt9iuZ6zYHoju/ojt1RPbhO5jO6TDVjz3/Lce2Aab/dwFTBndYruesWN7ILr7IbZXT2wTSsR2SIctOb8LpeguYIroFtv1TBXbA9HdPrG9emKbUCa2QzpszeM3nn/vNthEdwFjRrfYrueY2I7vpyc/+sVHs/93GdHdLrG9emKbUCq2Qzps0SO/fPPpLODozxjRLbbrOTa24/tp+321iV/Ms8dcRnS3R2yvntgmlIvtkA5b9a7/9jvP7sYbfTolusV2PSfG9vB9Jbo7JrZXT2wTSsZ2SIctE911RCzF3UWz43wZsV3PSLE9EN0dEturJ7YJZWM7pMPWie4SDg4jsV3PyLE9EN0dEdurJ7YJpWM7pMMeiO6uiW2miu2B6O6A2F49sU0oH9shHfZCdHdJbDN1bA9Ed8PE9uqJbcIqYjukw56I7q6IbeaK7YHobpDYXj2xTVhNbId02BvR3QWxzdyxPRDdDRHbqye2CauK7ZAOeyS6mya2WSq2B6K7AWJ79cQ2YXWxHdJhr0R3k8Q2S8f2QHQvSGyvntgmrDK2QzrsmehuitimldgeiO4FiO3VE9uE1cZ2SIe9E91NENu0FtsD0T0jsb16Ypuw6tgO6bAC0b0osU2rsT0Q3TMQ26sntgmrj+2QDqsQ3YsQ27Qe2wPRPSGxvXpimyC2z6XDSkT3rMQ2vcT2QHRPQGyvntgmiO0L0mE1onsWYpveYnsgukcktldPbBPE9o50WJHonpTYptfYHojuEYjt1RPbBLGdSIdVie5JiG16j+2B6D6B2F49sU0Q25dIh5WJ7lGJbarE9kB0H0Fsr57YJojtK6TD6kT3KMQ21WJ7ILoPILZXT2wTxPY10uEaiO6TiG2qxvZAdO9BbK+e2CaI7T2kw7UQ3UcR21SP7YHovoLYXj2xTRDbe0qHayK6DyK2WUtsD0R3QmyvntgmiO0DpMO1Ed17EdusLbYHovsCsb16Ypsgtg+UDtdIdF9JbLPW2B6I7i2xvXpimyC2j5AO10p0p8Q2a4/twaqjW2yvntgmiO0jpcM1E913EduI7butMrrF9uqJbYLYPkE6XDvRfUZsI7Zzq4pusb16Ypsgtk+UDll9dIttxPbVVhHdYnv1xDZBbI8gHfKWlUa32EZs76d0dIvt1RPbBLE9knTIj60susU2YvswJaNbbK+e2CaI7RGlQ+62kugW24jt45SKbrG9emKbILZHlg55u+LRLbYR26cpEd1ie/XENkFsTyAdkisa3WIbsT2OrqNbbK+e2CaI7YmkQy5XLLrFNmJ7XF1Gt9hePbFNENsTSodcrUh0i23E9jS6im6xvXpimyC2J5YOuV7n0S22EdvT6iK6xfbqiW2C2J5BOmQ/nUa32EZsz6Pp6Bbbqye2CWJ7JumQ/XUW3WIbsT2vJqNbbK+e2CaI7RmlQw7TSXSLbcT2MjZPfvSLj2bP7WWmjG6xvXpimyC2Z5YOOVzj0S22EdvL2jz3/LcOenGbIrrF9uqJbYLYXkA65DiNRrfYRmy3YdHoFturJ7YJYnsh6ZDjNRbdYhux3ZZFoltsr57YJojtBaVDTtNIdIttxHabZo1usb16YpsgtheWDjndwtEtthHbbZslusX26oltgthuQDpkHAtFt9hGbPdh0ugW26sntgliuxHpkPHMHN1iG7Hdl0miW2yvntgmiO2GpEPGNVN0i23Edp9GjW6xvXpimyC2G5MOGd/E0S22Edt9GyW6xfbqiW2C2G5QOmQaE0W32EZs13BSdIvt1RPbBLHdqHTIdEaObrGN2K7lqOj+m5985FNie9XENkFsNywdMq2RoltsI7ZrOji6DyW2SxHbBLHduHTI9E6MbrGN2K5tsugW26WIbYLY7kA6ZB5HRrfYRmyvw+jRLbZLEdsEsd2JdMh8DoxusY3YXpfRoltslyK2CQfH9u1XX3vngx/71K34b/b/mU46ZF57RrfYRmyv08nRLbZLEduEo2L7vo988sX4Por/iu55pUPmd010i23E9rodHd1iuxSxTTgptgeie17pkGVcEt1iG7HNm3Ess+N8lTuvv3HP7oss3RLbhFFieyC655MOWc5OdIttxDZnsR3HNDvW17nqxZZuiG3CqLE9EN3zSIcs6zy6xTZim5NieyC6uya2CZPE9kB0Ty8dsrwbf/AXD2Xzy4jtesQ2Y8T2QHR3SWwTJo3tgeieVjqkL2K7HrHNmLE9EN1dEduEWWJ7ILqnkw7ph9iuR2wzRWwPRHcXxDZh1tgeiO5ppEP6ILbrEdscE9t3nvvq7C/KTEZsExaJ7YHoHl86pH1iux6xzTGx/ZXHP/ne7ffPJv6b/f/LiO4miW3CorE9EN3jSoe0TWzXI7Y5JbbPv49Ed9/ENqGJ2B6I7vGkQ9oltusR24wQ2wPR3SexTWgqtgeiexzpkDaJ7XrENiPG9kB090VsE5qM7YHoPl06pD1iux6xzQSxPRDdfRDbhKZjeyC6T5MOaYvYrkdsM2FsD0R328Q2oYvYHoju46VD2iG26xHbzBDbA9HdJrFN6Cq2B6L7OOmQNojtesQ2M8b2QHS3RWwTuoztgeg+XDpkeWK7HrHNArE9EN1tENuErmN7ILoPkw5ZltiuR2yzYGwPRPeyxDahRGwPRPf+0iHLEdv1iG0aiO2B6F6G2CaUiu2B6N5POmQZYrsesU1DsT0Q3fMS24SSsT0Q3ddLh8xPbNcjtmkwtgeiex5im1A6tgei+2rpkHmJ7XrENg3H9kB0T0tsE1YR2wPRfbl0yHzEdj1imw5ieyC6pyG2CauK7YHozqVD5iG26xHbdBTbA9E9LrFNWGVsD0T326VDpie26xHbdBjbA9E9DrFNWHVsD0T33dIh0xLb9YhtOo7tgeg+jdgmiO0LRPePpUOmI7brEdsUiO2B6D6O2CaI7YTofks6ZBpiux6xTaHYHojuw4htgti+gugW3LMR2/WIbQrG9kB070dsE8T2HtYe3emQcYntesQ2hWN7ILqvJrYJYvsAa47udMh4xHY9YpsVxPZAdOfENkFsH2Gt0Z0OGYfYrkdss6LYHojuu4ltgtg+wRqjOx1yOrFdj9hmhbE9EN1vEdsEsT2CtUV3OuQ0Yrsesc2KY3uw9ugW2wSxPaI1RXc65Hhiux6xjdj+kbVGt9gmiO0JrCW60yHHEdv1iG3E9tusLbrFNkFsT2gN0Z0OOZzYrkdsI7YvtZboFtsEsT2D6tGdDjmM2K5HbCO2r1U9usU2QWzPqHJ0p0P2J7brEduI7b1VjW6xTRDbC6ga3emQ/YjtesQ2Yvtg1aJbbBPE9oIqRnc65Hpiux6xjdg+WpXoFtsEsd2AatGdDrma2K5HbCO2T9Z7dIttgthuSKXoTodcTmzXI7YR26PpNbrFNkFsN6hKdKdDcmK7HrGN2B5db9Ettgliu2EVojsd8nZiux6xjdieTC/RLbYJYrsDvUd3OuRuYrsesY3Ynlzr0S22CWK7Iz1Hdzrkx8R2PWIbsT2bVqNbbBPEdod6je50yFvEdj1iG7E9u9aiW2wTxHbHeozudIjYrkhsI7YX00p0i22C2C6gt+hOh2sntusR24jtxS0d3WKbILYL6Sm60+Gaie16xDZiuxlLRbfYJojtgnqJ7nS4VmK7HrGN2G7O3NEttgliu7AeojsdrpHYrkdsI7abNVd0i22C2F6B1qM7Ha6N2K5HbCO2mzd1dIttgthekZajOx2uidiuR2wjtrsxVXSLbYLYXqFWozsdroXYrkdsI7a7M3Z0i22C2F6xFqM7Ha6B2K5HbCO2uzVWdIttwsGxPXjXJ/742Z3vKTrVWnSnw+rEdj1iG7HdvVOjW2wTjo7tgeiuo6XoToeVie16xDZiu4yjo1tss3VybA9Edx2tRHc6rEps1yO2EdvlHBzdxxDb5YwW2wPRXUccy+wYzykdViS26xHbiO2yJo1usV3O6LE9EN11LB3d6bAasV2P2EZslzdJdIvtciaL7YHoLmPz+J98efJ/PbtMOqxEbNcjthHbqzFqdIvtciaP7YHoLuOoN1ePIR1WIbbrEduI7dUZJbrFdjmzxfZAdNew1Jso02EFYrsesY3YXq2ToltslzN7bA9Edw1L7OdOh70T2/WIbY6J7TvPffWB7feP2K7hqOgW2+UsFtsD0V3Dk1/42qPZ8Z1KOuyZ2K5HbHNMbA+c4S7l4Oj+x9vfeOedn/g3X0vCjf4sHtsD0V3C5oVXfnBvdnynkA57JrZrEducEtsD0V2K6F6nZmJ7ILr79+DHPnUrO7ZTSIe9ijhLFmc6JbYZI7YHorsU0b0uzcX2QHR3b/PUn3394ezYji0d9uhzj/zm08miTKfENmPG9kB0lyK616HZ2B6I7r7FVUvuvP7GPdmxHVM67I0X0VrENlPE9sB6UYrorq352B6I7r7NcUOcdNgTVyGoRWwzZWwPRHcporumbmJ7ILq7NvkbKNNhL+KKJLHY7iy+dEpsc0xsx6WdjrlzmOguRXTX0l1sD0R3vx75vc8+nR3TsaTDXtx68FdvJQsvHRLbHBPb8c+A24VyE0T36onuGrqN7YHo7takZ7nTYQ/OXyizRZfOiG1OjO0fLZaie/VEd9+6j+2B6O7TlGe502HrXrn5zftjYd1ZaOnQMbF95/uv3yO26xgptgeiG9HdpzKxPRDdXdrcfvW1Sd5DlA5b5+Y2NRwT24N3/bffeTaLN/oycmwPRDeiuy/lYnsguvsz1RVL0mHLzl8UswWWjpwS2wPR3beJYnsguhHdfSgb2wPR3Z1NdhxPlQ5b9eoL37k3FtGdRZXOjBHbA9Hdp4ljeyC6Ed1tKx/bA9Hdlxu3/+qh7DieIh22KkItWVDpyJixPRDdfZkptgeim6Oi+29+8pFPJYHIeFYT2wPR3Y8HP/apW9kxPEU6bJEb3PRvitgeiO4+zBzbA9HNwdEdXv7XP/s/k1DkRPEvCPFLTfacVye6uzH6myfTYYtcc7tvU8b2QHS3baHYHohujoruH/z8B39uG4mb3WjkOPFLzFpjeyC6+xA3VcuO37HSYWuc3e7bHLE9EN1tWji2B6Kbo6L7728899A2FkX3aTZ/+573/2L2/K6R6G7f2NtK0mFrnN3u15yxPRDdbWkktgeim6Oi+3+98OV77es+2iZ+acme1zUT3c0bdVtJOmyJs9v9WiK2B6K7DY3F9kB0c1R0hzhLGwG5E5RcwhaSq4nutj31Z19/ODtux0iHLXF2u09LxvZAdC+r0dgeiG6Oju43bn7mfpcOvNZm80tPvzt7/rib6G5XHJvsmB0jHbbCLdz71EJsD0T3Mo6J7Qjg7QI3R2wPRDdHR3fwhsrUxlntw4nuZo12E5x02IovPfbbTyQLJA1rKbYHonte8Xzf+f7r92TH4jI3X3r5/ljYdha6OYhuToru2Nt9fvnA1Yd3nPW3V/t4ortN8fqUHa9DpcMWvHHntXtiIdxZGGlYi7E9eOSXbz69jcHNbhwyrojt7Pm/Srwp5b6PfPLFbKGbiejmpOgOcROX8zdVrjG8N6996NdH2+u6ZqK7PWPt406HLfjGU599OFkUaVTLsT14/Mbz791GoeiexuaY2A6NvMCIbk6O7rCy8N7Etpof3nn5oH/R4mqiuy2P/N5nn86O06HSYQu8WbIfPcT24KmPf+XhiMOdWOQ0m/hlJnu+r/PYp7/4RLbALUR0M0p0h8rhHVtH4oy20J6O6G7KKPu40+HS/u72994ZC9/OQkiDeortwXPPf+uBeFNfEo4cbnPjD/7iqD2bN27/1UOxkO0sbEsT3YwW3SGuaFLkUoJnb4aMXySyvyfjE93N2Nx5/Y2Tf7lMh0u7/eStR5NFkMb0GNuDuIKGN1OeJn5peeEvX7k3e36vE4vXwvu2ryK6GTW6Q5wNjjcUdvYGy02czY7L+7nqyDJEdxteeOUHR73WXZQOlxYhlyyANKTn2L7Ivu6jbOJNqNnzua/YE5ctag0R3Wz++saXJrniRsRrw/G9ia0wEdlxdj77+pmX6F7eGG+cTIdLcnWS9lWJ7cHNP33pfltM9nb0FpJBo1tJMqKbTdztODvOY4ptGvHmw4X2fJ+dxY5tL/FLgDPZbRLdy3ryC197NDsuh0iHSzq/lXu28NGAarF90WMf/qMnIih3ApO3nJ3VPvRmNrsa30qSEd3MEt0XxbW9402JEeHf/an3fSii+IIsmvdx9vFxVj0+Z3z+OIPtjY/9EN3LGeNKJelwSecvVNmix8Iqx/YgznY/+Au/dSsJztWKs/+nntUeNHZVkn2JbjavvvCdk/dwnipCPEQoRzBfJ85YDx+TfT76I7qXUTK4XQ6wTWuI7Yvi8oG2mfyPzZMf/eLJ/4w2iDedbBeuHraSZET3yv3+fR9+Ma6glR1nmJPonl/8y2x2LA6RDpdi/3ab1hbbF630TZVn19U+9Pbs1+ngjZLXEd0rt+a1kLaI7tmdfC3udLiUV25+8/5skWM5XmDefEeE50rCe5LQDhGqsWDtLGA9Et0r96XHfvuJ7BjD3ET3rGoFt9u5t0Vsv92FrSZl4jv+PlOF9uDBj33qVrKA9Up0r9tklwuEQ4nu2dQK7s898ptPJ4sbCxDbV4u7VcZVO7bB2mt4b+LGP/H3yP5+Yyp0dvsi0b1uG/u5aYXonkWt4PaGyTaI7f3FWeG4gsf5XStbj+9NXIEl3gh56uX9DlFg7/ZlRPeKWSdpieie3ql3m0yHS9kuYl6EFuZF5HhDfF84891CgJ+dyY6tMHNG9qDzK5PsQ3Sv1ya2QWbHF+Z2fkOxbI1iJGWC2xVKlie2x/XCX75yb4RuBPhM+77PIj/+vPhz45ri2dc1p8f/5MvvzRauYkT3etlawuKKbttrzSZu3JY9//tKh0uImwokixkzEdvTizPgQ4THto4I452z4YNLY3oQZ63jY+PzxOeLzzvlmx6PEYtTLFI7i1ZVonul4r1H2bGFOYjt2dTZw+2SgMsR2+0YonxXazG9jxX+E6foXqfZb/0OQWzPqk5wuyTgMsQ2Uyl2KcB9ie4Vijf8Z8cVpiK2Zye4OZ7YZiq3X33tnbFA7SxYayG6V8gbKJmL2F6E4OY4YpspPfmFrz2aLFhrIrpX5vfv+/CL2TGFMYntZcRlF7PjcYh0uATBPR+xzdRWup1kl+heGWe5mZLYXk7cTyI7JodIh0v40mO//US2gDEusc3UVnZ1kuuI7hVxlpupiO1lxSVus+NyiHS4BLd1n57YZg5uwPA2ontF/vrGlx7KjiccS2wv76k/+/rJ/3qVDpcguKfnhYA5PPbpLz6RLVgrJ7pXwhVLGJPYbsMx6/eudLiE20/eejRbvBiV68Uyufs+8skXswUL0b0Sm7ivRHYs4RBiuxmbU2/rHtLhErxpcjaim8ms/HKA+xDdKxDvScqOI+xLbDfl5EsChnS4BME9K9HNJOzf3ovorm/zxp3Xurs7LG0Q220Z45KAIR0uQXDPTnQzungnd7Zg8TaiuzjvmeEYYrs9Y1yhJKTDJQjuRYhuRhVnArIFi5ToLsxVoTiU2G7TMet0Jh0u4dUXvnNvtmgxOdHNaLaLkxeLw4juumwrYW9iu1mbuLdEdswOlQ6XILgXJbo5mRveHE10F2VbCfsQ2+2KuyZnx+wY6XAp2wXKi8dyRDcnicsmZQsWexHdBcX9JbLjBgOx3bax9m+HdLiU7QLlhWNZopujuULJyUR3PaNcToyaxHb7br708mjX1E+HS3G3ySaIbo4St77NFiwOIrqLcRMcMmK7C6P+wpwOl3L+opEuWsxKdHOwJ7/wtUeTBYvDie5C4i7K2fFivcR2Hx779BdHvYFVOlyKSwM2RXRzkEd+77NPZ4sWRxHdRdjHzUViux/HrMFXSYdLOb9SiReLdohu9ia4Rye6a7CPmzNiux/3feSTL2bH8BTpcEmxOO0sVixLdLMXwT0J0d2/zd/d/t47s+PEeojtvox5dZJBOlxS3J0rWbBYlujmWoJ7MqK7c9bPdRPb3dncfvW10X9JTodLijeYZAsWixPdXElwT0p0dyzen5QdH+oT2/151yf++NnsWJ4qHS4pLqGULVg0QXRzKcE9OdHdKW+cXCex3aWj1tl9pMOlbRcoLw7tEt2kBPcsRHeHBPf6iO0+jXkr913pcGlfeuy3n8gWLZohunkbwT0b0d0fVypZEbHdrcnObod0uLSIuWTBoi2im7sI7lmJ7r4I7pUQ2/2a8ux2SIctiAVqZ8GiPaKbHxHcsxPd/XBpwBUQ212b9Ox2SIctsK2kG6KbM4J7EaK7E3Fjt+xYUIPY7tvUZ7dDOmzB+bYSLwh9EN2848kvfO3RbCFjcqK7A4K7LrHdvc3Nl16+Pzu2Y0qHrfj9+z78YrZw0STRvXJP/dnXH04WMuYhuhsnuGsS2/2Lf53Nju3Y0mEr3ASnO6J7xW7c/quHssWM2YjuhgnuesR2/+77yCdfvPP6G/dkx3ds6bAVb9x57Z7tQuWFoC+ie6VeeOUH92YLGrMS3Y0S3LWI7RI28S+z2fGdQjpsiTdPdkl0r1CcJYgFbGdBY36iu0GCuw6xXcNUt3C/TDpsSSxS28XKi0B/RPcKbRcxL0JtEN2NEdw1iO0aYivJ7Vdfm/VSnemwNXFb3GwBo3mie2VcGrAporshgrt/YruMTbznKDvGU0qHrXGWu2uie0Ue/5MvvzdZ3FiO6G6E4O6b2K7jsU9/8YnsGE8tHbbIWe6uie6VcKWSJonuBgjufontOubet31ROmxR3BZ3u2hZ/Pslulcg9sRtFzUvTO0R3ctya/dOie06lti3fVE6bNX54p8tZvRBdK9ALGrZYsfiRPdyNtlzS9vEdimbuHRtdpznkg5b5u6T3RPdxcX+uGSxow2iexmCuzNiu5Sj1r2xpcOW/fWNLz0Ui9fOYkZfRHdh9nE3T3TP7DPv+o3F9o1yOLFdyiJXJMmkw9Z5A2UJorsoN8DpguieUbxmZc8n7RHbpWziylnZcV5COmxd3PLd1pISRHdRD37sU7eSxY+2iO6Z3H7y1qPZc0lbxHYpTcV2SIc9iFDbLmQW/f6J7oKe/MLXHk0WQNojumcQWyGz55F2iO1SmovtkA57cb7opwscXRHdxbg8YFdE97Q2rsHdNrFdSpOxHdJhT+LNKMkCR39EdzG2lXRFdE/HFUoaJrZLaTa2QzrsSdxMwH7uMkR3Ia5W0h3RPQFXKGmX2C6l6dgO6bA3r9z85v3bhc2CX4PoLiQWwZ1FkbaJ7pHFc5M9ZyxLbJfSfGyHdNgj1+cuRXQXEYtgsjjSNtE9ImtZe8R2KV3EdkiHvbLglyK6C4hb6caCuLNA0j7RPY5NXMY2e65YhtgupZvYDumwZxb8UkR3AY/83mefThZK2ie6T2T/dlvEdildxXZIh72z4JciujvnLHfXRPcJ3PCmHWK7lO5iO6TDCiz4pYjuzjnL3TXRfZxNXEUre26Yl9gupcvYDumwCgt+KaK7Y85yd090H+jWg796K3tOmJfYLqXb2A7psBLRXYro7piz3N0T3QewnWR5YruUrmM7pMNqRHcportTznKXILr3YzvJwsR2Kd3HdkiHFYnuUkR3p2LRTBZT+iK6r+HqJMsS26WUiO2QDqsS3aWI7k7d95FPvpgsqvRFdF/B2rQcsV1KmdgO6bAy0V2K6O7Qjdt/9VAspDsLK/0R3Ynfv+/DL2Z/b6YntkspFdshHVYnuksR3R3yBsoyRPcOb5ZchtgupVxsh3S4BqK7FNHdmTuvv3GPrSVliO4fcyv3BYjtUkrGdkiHayG6SxHdnfEiWYro3oq/T/b3ZDrWkVLKxnZIh2siuksR3Z2JxTVZdOnT2qPb2e2Zie1SSsd2SIdrI7pLEd2dedcn/vjZZPGlT6uNbme35yW2Sykf2yEdrpHoLkV0d8R+7nJWF92uTDIvsV3KKmI7pMO1Et2liO6OuAtlOWuK7s03nvrsw9nfh/GJ7VJWE9shHa6Z6C5FdHfEC2k5q4juWw/+6q3s78H4rBGlrCq2QzpcO9FdiujuyFN/9vWHYyHeWZjpV/Xo3rz6wnfuzf4OjEtsl7K62A7pENFdjOjuSCzEsSDvLND0q2x0f+mx334i+9oZl9guZZWxHdIhbxHdpYjujojucspFtzdKzkNsl7La2A7pkB8T3aWI7o6I7nIqRffmlZvfvD/7ehmP2C5l1bEd0iF3E92liO6OiO5yKkT35vaTtx7Nvk7GI7ZLWX1sh3TI24nuUkR3R0R3OV1H92fe9RvPZl8f4xHbpYjtc+mQnOguRXR3RHSX02V0x75tt2+fltguRWxfkA65nOguRXR3RHSX01t0uwTgxMR2KWJ7RzrkaqK7FNHdEdFdTi/RbZ2YmNguRWwn0iHXE92leDHtiOgup/Xo3sSflX0NjENslyK2L5EO2Y/oLkV0d0R0l9NqdIvtiYntUsT2FdIh+xPdpYjujojuclqLbrE9MbFditi+RjrkMKK7FNHdEdFdTivRLbYnJrZLEdt7SIccTnSXIro7IrrLWTq6xfbExHYpYntP6ZDjiO5SRHdHRHc5S0W32J6Y2C5FbB8gHXI80V2K6O6I6C5n7ugW2xMT26WI7QOlQ04juksR3R0R3eXMFd1ie2JiuxSxfYR0yOlEdymiuyOiu5ypo1tsT0xslyK2j5QOGYfoLkV0d0R0lzNVdIvtiYntUsT2CdIh4xHdpYjujojucsaObrE9MbFditg+UTpkXKK7FNHdEdFdzljRLbYnJrZLEdsjSIeMT3SXIro7IrrLOTW6xfbExHYpYnsk6ZBpiO5SRHdHRHc5R0e32J6W2C5FbI8oHTId0V2K6O6I6C7nqOhmOmK7FLE9snTItER3KaK7I6K7HNHdCLFditieQDpkeqK7FNHdEdFdjuhemNguRWxPJB0yD9FdiujuiOguR3QvRGyXIrYnlA6Zj+guRXR3RHSXI7pnJrZLEdsTS4fMS3SXIro7IrrLEd0z8bNTitieQTpkfqK7FNHdEeFQjuiemJ+ZUsT2TNIhyxDdpYjujgiIckT3RPyslCK2Z5QOWY7oLkV0d0RIlCO6R+ZnpBSxPbN0yLJEdymiuyOCohzRPRI/G6WI7QWkQ5YnuksR3R0RFuWI7hP5mShFbC8kHdIG0V2K6O6IwChHdB/Jz0IpYntB6ZB2iO5SRHdHhEY5ovtAfgZKEdsLS4e0RXSXIroX8srNb97/d7e/987s/11GcJQjuvfke78Usd2AdEh7RHcpontm8XzH8/779334RdG9eqL7Gr7nSxHbjUiHtEl0lyK6ZzLE9vDci262RPclfK+XIrYbkg5pl+guRXRPbDe2B6KbLdG9w/d4KWK7MemQtonuUkT3RC6L7YHoZkt0n/O9XYrYblA6pH2iuxTRPbLrYnsgutlafXT7ni5FbDcqHdIH0V2K6B7JvrE9EN1srTa6fS+XIrYblg7ph+guRXSf6NDYHohutlYX3b6HSxHbjUuH9EV0lyK6j3RsbA9EN1uriW7fu6WI7Q6kQ/ojuksR3Qc6NbYHoput8tHte7YUsd2JdEifRHcpontPY8X2QHSzVTa6fa+WIrY7kg7pl+guRXRfY+zYHohutspFt+/RUsR2Z9IhfRPdpYjuS0wV2wPRzVaZ6Pa9WYrY7lA6pH+iuxTRvWPq2B6Ibra6j27fk6WI7U6lQ2oQ3aWI7nNzxfZAdLPVbXT7XixFbHcsHVKH6C5l9dE9d2wPRDdb3UW378FSxHbn0iG1iO5SVhvdS8X2QHSz1U10+94rRWwXkA6pR3SXsrroXjq2B6Kbreaj2/dcKWK7iHRITaK7lNVEdyuxPRDdbDUb3b7XShHbhaRD6hLdpZSP7tZieyC62Wouun2PlSK2i0mH1Ca6Sykb3a3G9kB0s9VMdPveKkVsF5QOqU90l1IuuluP7YHoZmvx6PY9VYrYLiodsg6iu5Qy0d1LbA9EN1uLRbfvpVLEdmHpkPUQ3aV0H929xfZAdLM1e3T7HipFbBeXDlkX0V1Kt9Hda2wPRDdbs0W3751SxPYKpEPWR3SX0l109x7bA9HN1uTR7XumFLG9EumQdRLdpXQT3VVieyC62Zosun2vlCK2VyQdsl6iu5Tmo7tabA9EN1ujR7fvkVLE9sqkQ9ZNdJfSbHRXje2B6GZrtOj2vVGK2F6hdAiiu5Tmort6bA9EN1snR7fviVLE9kqlQwiiu5RmonstsT0Q3WwdHd2+F0oR2yuWDmEguktZPLrXFtsD0c3WwdHte6AUsb1y6RAuEt2lLBbda43tgehma+/oduxLEdsIbvYjukuZPbrXHtsD0c3WtdHtmJcitjmTDiEjukuZLbrF9t1EN1uXRrdjXYrY5kfSIVxGdJcyeXSL7ZzoZutt0e0YlyK2uUs6hKuI7lImi26xfTXRzdaPotuxLUVs8zbpEK4juksZPbrF9n5EN1ubR37vs0/Hf3fm9Elsk0qHsA/RXcpo0S22DyO6oQyxzaXSIexLdJdycnSL7eOIbuie2OZK6RAOIbpLOTq6xfZpRDd0S2xzrXQIhxLdpRwc3WJ7HKIbuiO22Us6hGOI7lL2jm6xPS7RDd0Q2+wtHcKxRHcp10a32J6G6IbmiW0Okg7hFKK7lEujW2xPS3RDs8Q2B0uHcCrRXcrboltsz0N0Q3PENkdJhzAG0V3Kj6JbbM9LdEMzxDZHS4cwFtFdysbxXIbohsWJbU6SDmFMIg1OJ7phMWKbk6VDGJvohtOJbpid2GYU6RCmILrhdKIbZiO2r/Htb3/7n/75n3/1n/3hH376n3/0o8/+y10xj///3e9+759kH78m6RCmIrrhdKIbJie2ExHPv/ZrN/7V+//Lf33Pv/0//69nzr25h7PHxsdFiEeoZ5+/snQIUxLdcDrRDZMR2xdEHP/Kh/77wz/z0//uQ+fhnAX1oZ557N+/54mI97Wc/U6HMDXRDacT3TA6sX0uzmZfOJOdRfNYzs58x5+XfR1VpEOYg+iG04luGI3Y3ooz2keG9ucT2eMu88wHPvDBn656xjsdwlxEN5xOdMPJxPZWbPGI8N0J4V1nMb2N8hsf/eiz//fnXvjcv/3zP//qv/qHf/iH/+3i59qG80/E/A//8NM/E4+Lxw8fe/55LvNM7PO++LkqSIcwJ9ENpxPdcLTVx3ac1f6P7/tP/zlidyd+f+Rnfvrf3fqVD/33D0ZgZ59jX/HxH/jAB39l+zmvCu+zbSbZx/cqHcLcRDecTnTDwVYf29sAvvf8DZFZ+J6Fdpyh3j2Dfao4Ax6fNz5/9ueG+LqqXNEkHcISRDecbHP7yVuPZj9fVxHdrNTqYzuuk70N28vOan9+itDeFZ8/zpzHn7fz55+J6K7whsp0CEsR3XC0Tfz8ZD9X+xDdrIzYviK2/+P7/tOz3/72t//37OOmEvu9H/v37/lE9vVsPRNn4rOP60U6hCWJbjjYSbE9EN2shG0k23iNiN2J2vD5ONs89Vnty8Sfe9n+7t63l6RDWJrohr2NEtsD0U1x3iC5jdaI192g3TrbQpJ9zNwu22ISX3f2+B6kQ2iB6IZrjRrbA9FNUauP7RB3eNwN2a3Px+X7sscv5bLojqupZI9vXTqEVohuuNQksT0Q3RQjtrfOr7N9V8BufX47f3/2+EHEeFxH+xRx9jwuCXjIdpVLorvL63SnQ2iJ6Ia3mTS2B6KbIsT2VlzpI2J1J17fjD3T2eMvilje/bgTnO0Tj8sCZn/WrngDZ/I5nuntjpTpEFojuuFHZontgeimc2L7XLaVJK4Kss8Z55GDe7DXNpYI859JrtX9/s5ujJMOoUWiG+aN7YHoplNi+9wllwD8fFyKL3v8riS4Y5vHvi5+3K69ovsTH//Ee+KxOx/7TE/X506H0CrRzYotEtsD0U1nxPYF2dntfbaSDLLgzh63K4I+9m3HHvHza2y/LcDj7PU+20tiH/jux/Z0ljsdQstENyu0aGwPRDedENsXXHZ2e9891OHY4N51yZnqN69702aIeE8+9plers2dDqF1opsVaSK2B6KbxontHR/4wAd/eidS34w3LWaPvcxYwR1iC0l8/MXPF2e/s8fuys5yb/8uD2ePbU06hB6IblagqdgeiG4aJbZ3xJU8tlH6trPbh962fczgDkk473XGPbanxGMvfmwvN8NJh9AL0U1hTcb2QHTTGLGdON9OcjFs48Yxz2aPvcrYwX1+lvvi53tz3zdwJlcseSZuVZ89tiXpEHoiuimo6dgeiG4aIbYvkW0niX3U2WOvMnZwn+/Hvvj59g7u85vh3PWxcUOf7LEtSYfQG9FNIV3E9kB0szCxfYXYbrETpwdvJwktBff5tpK7PraH272nQ+iR6KaArmJ7ILpZiNi+Qly9Yxujd+3fju0Y2WOvM3Zwn1+t5OLn2zu440Y98efvfPwz2WNbkg6hV6KbjnUZ2wPRzczE9jViX/NOlMZ1q29kj73OHG+a3OeOl4Pkdu/N3wQnHULPRDcd6jq2B6KbmYjtPWwj+V/uROmbEc7ZY68zZnBnlwU89I2ccdOeix8f4g2i2WNbkQ6hd6KbjpSI7YHoZmJie09ZcB/zhskwVnCff57d7SB73d79ouTriV8m/mX22FakQ6hAdNOBUrE9EN1MRGwfIG57vhul++6T3pUFd3yufUTkx5VFzi/ntxvbY12mUHDDkkQ3DSsZ2wPRzcjE9oEmDu5RRIQfc9WU+Hvsfi7BDQsT3TSodGwPRDcjEdtHaDy4Px9nto+J7SC4oVGim4asIrYHopsTie0jNRrcn3/s37/nE/H5sj9nX4IbGia6acCqYnsgujmS2D7B1Hu4t5//xmXi/198/M/89L+Lu0G+P25ak33+Q2W3hhfc0BDRzYJWGdsD0c2BxPaJfuVD//3h3Sg9Nniz4M4eN8huv35s7GeSr0dwQ2tENwtYdWwPRDd7EtsjiABNonSW63DHTWzOr0ryo4+JrSSH3NzmKnG2/OLnDp/4+Cf+RfbYVqRDqE50MyOxfYHo5hpieyRxI5jdKI0zz9ljr3NocIfsBjcRytljD3W+beXi1xNn0N1pElokupmB2E6Ibi4htkcUAboN0WcuRukx17wOxwR3SML47Prd2WMPEZ9n5/M+893vfu+fZI9tRTqEtRDdTEhsX0F0s0NsTyBCdCdMP3/Mto5jg3sbwT8x9taSuJRg/PkXP+f2z/hQ9tiWpENYE9HNBMT2HkQ358T2RP7j+/7Tf74YpuHQ26iHY4M7nH/saFtL4s6VFz9X+MAHPvjT2WNbkg5hbUQ3IxLbBxDdqye2J7QN27ddr3obp7+SPfYqpwR3iK0sux9/7NaS5HPFLxH/PHtsS9IhrJHoZgRi+wiie7XE9sS+/e1v/9NtkJ68reTU4M62gRyztST7PFvN798O6RDWSnRzArF9AtG9OmJ7JtuwfWInUA++POCpwR2yS/kdurUku773+//Lf31P9tjWpENYM9HNEcT2CET3aojtGW1j+W3X4443Mh5ydnmM4I4/L85q736efbeWxBsw4/E7H/9MD9tJQjqEtRPdHEBsj0h0lye2FxBX8dgJ1YPOco8R3CHudBkfe/Fz7bu1JDu7HWfvs8e2KB0Copu9iO0JiO6yxPZCstu8x1nuOGucPX7XWMEd4k2bO5/r2q0ll+zdbv527helQ+AtopsriO0Jie5yxPbCsrPc+16xZMzgjrPZEfu7ny/OfmePD9mVSXo6ux3SIfBjopuE2J6B6C5DbDcgzgZvQ/VtVyyJ61pnj79ozOAO59fSvuuM9WX7ys/fbNnt3u1BOgTuJrq5QGzPSHR3T2w3JLsRztbnY8tG9vjB2MEdktu+v+2Me9ykJ/6s3cf1cmWSi9Ih8Haimy2xvQDR3S2x3ZhLrst9dnb5quiOvd5xNZGLsscdIvucFz/vZfu2Y2tMD9fd3pUOgZzoXjWxvSDR3R2x3ajYirEN14Oje07xdST7vMMzn3vhc/dmH9O6dAhcTnSvkthugOjuhthu3PlVS9LovniWeQmXbSPZeqanq5LsSofA1UT3qojthoju5ontTlwW3Vufjz3b2cdMKd4weckbJMMz8fVmH9eLdAhcT3SvgthukOhultjuzFXRHZfim2uLSZxVT+5COeg+tkM6BPYjuksT2w0T3c0R2526IrrD57f//4P73iDnUPF5z2+Ek53VDs/82q/dWHSLy1jSIbA/0V2S2O6A6G6G2O7cJz7+iX8RcbsTuxedhfdY+7vjJjfXhPbZ1Uh6u9b2VdIhcBjRXYrY7ojoXpzYLuLb3/72P427N2bxe8HnY+tHxHe8uXHfM9+xNSUeHx93fvWRS0N765m4Xnh8Pdnn6lU6BA4nuksQ2x0S3YsR2wVdckfKy0Q4n+33jhvZ7Dq/JfvZY84ff6U4q93zlUiukg6B44jurontjonu2YntwuLGMtfs7R5biTdGXiUdAscT3V0S2wU8+YWvPRohuBOGjG/z1J99vXQc8ZYI73jTYpx5jijeieRTPRNbWKqe0d6VDoHTiO6uiO1Cnvvmdx6IINwJRMaziec4e+6pLe7wGGehz/d5HxvfZ5EdEV9tj/Z10iFwOtHdBbFd0M2XXr7/vo988sUkFjlBPKfx3GbPOesSZ74jwOPsdET4+//Lf33PZeL/x+P+/M+/+s+yz7UW6RAYh+humtgu7Parr73zwY996lYWjhwunst4TrPnGrheOgTGI7qbJLZX4pHf++zT22C0xeR4m8c+/cUnsucW2F86BMYlupsitlcm3uAX4bgTklxvc+P2Xz2UPafAYdIhMD7R3QSxvVK2mBzmXZ/442dtIYHxpENgGqJ7UWIblw68nkv+wQTSITAd0b0Isc2PxJnbOIMbcbkTm2u2if3uzmrDNNIhMC3RPSuxTSquJ+3ygW9d7s+1tWFa6RCYnuiehdjmWrGFYo3hHX9n20dgHukQmMc3nvrswxGFO5HIODbx/GbPO2TWEt5CG+aXDoH53Hnuqw/8/n0ffjEJRo63iec1e77hOhGj51c0qbTHexN/J6ENy0iHwLz+7vb33im6xxHPYzyf2fMMh4h9zQVunHN24xp7tGFZ6RBYxuce+c2nt9Foi8lxNvH8Zc8rnOLO62/cEzeA6ejKJpv4WuNrjq89+zsB80qHwHLs6z6K/drMYojvBs98n13WT2RDm9IhsKzYEvGZd/3GsxGSO2HJ3TbxPNlCwlJuvvTy/XEznQsBPkeEn/058WfGnx1fQ/a1Ae1Ih0AbnO2+krPaNCduHBP7pePNibF3eifED4nxH31MfI74XPE543O7OQ30Jx0C7Xjjzmv32Nt9l7O92vG8ZM8XtOyFV35w7z6yjwX6lQ6B9rxy85v333rwV29FcO4E6Fps4u8fz0P2/ABAq9Ih0K64vvTKwvsstF1XG4BepUOgfSsIb6ENQAnpEOhHBGmxPd5ne7SFNgBVpEOgP/EmwttP3nr0/I6VvcX3Jr7u+Pq9GRKAatIh0Ld4Y+FXHv/kexuP77PIjq/TGyEBqCwdAnW8+sJ37o0zx43cSOfsRjXx9cTXlX29AFBNOgTqirPJccOY2Cc98RnwszPY8efEn+csNgBrlQ6BdYmzzfEmxQjj2OIRkRwunBVPxf8fHhsfFx8fn8fZawD4sXQIAACMIx0CAADjSIcAAMA40iEAADCOdAgAAIwjHQIAAONIhwAAwDjSIQAAMI50CAAAjCMdAgAA40iHAADAONIhAAAwjnQIAACMIx0CAADjSIcAAMA40iEAADCGN9/x/wON54GLvXsGCwAAAABJRU5ErkJggg==;" vertex="1" parent="1">
          <mxGeometry x="20" y="229" width="110.76" height="110" as="geometry" />
        </mxCell>
        <mxCell id="uTMzhVTNKQnZPhbrhFbp-6" value="" style="dashed=0;outlineConnect=0;html=1;align=center;labelPosition=center;verticalLabelPosition=bottom;verticalAlign=top;shape=mxgraph.webicons.json;gradientColor=#DFDEDE" vertex="1" parent="1">
          <mxGeometry x="790" y="180" width="102.4" height="102.4" as="geometry" />
        </mxCell>
        <mxCell id="uTMzhVTNKQnZPhbrhFbp-11" value="" style="endArrow=classic;html=1;rounded=0;exitX=1;exitY=0.5;exitDx=0;exitDy=0;" edge="1" parent="1" source="uTMzhVTNKQnZPhbrhFbp-5" target="uTMzhVTNKQnZPhbrhFbp-1">
          <mxGeometry width="50" height="50" relative="1" as="geometry">
            <mxPoint x="560" y="319" as="sourcePoint" />
            <mxPoint x="610" y="269" as="targetPoint" />
          </mxGeometry>
        </mxCell>
        <mxCell id="uTMzhVTNKQnZPhbrhFbp-12" value="" style="shape=image;verticalLabelPosition=bottom;labelBackgroundColor=default;verticalAlign=top;aspect=fixed;imageAspect=0;image=data:image/png,iVBORw0KGgoAAAANSUhEUgAAAFEAAACACAYAAABz7YW8AAAAGXRFWHRTb2Z0d2FyZQBBZG9iZSBJbWFnZVJlYWR5ccllPAAACHxJREFUeNrsnXtoW3UUx8/Ny9luTZmbb0zEB2O2y8MXzkfv1HWbgq2CijpohsIUFPOHCjJliYgPBI2oCL4WBZ34IkOnc8/M6apza1Nb5xC33f6h6B/C2i7p5pL78/xubtZ0bdPk/tI8z4HTNGke9JPv+Z3f656fBDNo12y8xYE3Tv2u0n3r14NQg2Yp1hst+foWBwOQNWfgxlv3KU8JoAcJ4iS2YtOKLoTmY8Dkkw9KUFdmCOKdm1fYVQZ+FcCPd5vrDZowxJVblneojIUQnBPICoO4ettyrr4wqq+z3pVnCOIj25e7sN2LIrxmQmYA4mM7lnVh0ggRQIMQ1+xc1oXhGyZMBiE+s6vdpQIjgEYhvvhDuwMVGCU8AhCtEoto/T8yYxBf/2npWmAThmxk+UJ85+ebMYyZn7AIQLRILEBhLABxfe+NDhyR+AiJAESrBH6QGBERgWgzMVKhCMRvBpa0UVsoCNFmVmVCIQrRxAiiOERSohDEvkPX2lVGWVkIInaw3TRTLQjRaiYVCkNs2noMjrWfRiREIJ6+5Tioy81EQjQ7W0wU0uJdnENJYBebivm+CncGUjTrsWhNQzQfx39XIMHgK4/gjwi+C58RjzbN6x2qvwmIP/Hfdxl6fQw9NHtu7P26D2f2h8r1WGi4+hrnxnZSi5iBeJABG0U1nj5tr/sIegDhvUroxuxkNmEDaj6hKxPAXBD35YQY1gH2EbKpEguHeAhD+i8M6XMnhHQY4a0iVHkokZvanSKAohBZL6pROdlfjBBAAxC5pb5NnezCEB6DEOEfBPlGkqtwiPAYhcjtKPiH17S0ER4RiNwkiAwHW12ESAwiv7QiOvwcgTQOMW0ayJGXFhFIAYhpRZpYdOTV1g7CZRTimCIjI2+6Xjn6jstO2IxBzKjSjx6Lf+CmzG0YYtqcvJ2Mf+zeEf/cQzBB7CpTWYP5pUeRbBDCd4o03NQ7SBCNWPpCyRBqOpT43hsDK0TBhm4FpaGlp48gFm58S4pbbzsh8bsXGN8XwKFaWLhxfq+2FhP/171j0lczbeY8lvUNRfVflMZ5latyS4k+R4bsJdOkJOd4budkD8b/8YAO+IgGl6WXZRvP7tlZLxDHW0oyrvSxLyUN9y8vV3BM+5L028bzewZrH2Ky6Dsu3FmAIT7oUXSoEa7aRmfPUO1BPDHje/l4svPpDomDXr6pQPOGi4oP1JJuY0prUrLkX1tnpq1NHPCGNZgLejYUrbNtX7+/ryzhXC5PMR96JPGr53BiwPNoYsArPIzNjFiUkieW8rsTVCkEKiiJPu9adLsYRCm7b1YKJVaUN0MKAuhKYh/C3He53SjESGmVWJHejKoMgMpiiT3ejkITC4cYLbkSK9d4Zo8kur28i9TZsHj6bK4p0R7ePwil3ISZrAqXtRD/bnpVjk2FmaRw6cKZVYtjiGMm3+FZmxdE+1u/vl+yLJ2sMsfEk9jqWTe9EnnTaNLK8xHEyd2X2DQ5yHEQm15HNZaiu5OsYpBfeV7JCVHP1L6ZZshSVe3+eMTTlROi/eWBPgQZICXmbCND8c88jqmVyMP6hYGgPutR79l56qydYoGcEPW/+GasfSznBEQRJzLiH7ocOSE2BQeGMFvL49c8amoCohjuz61EtDlr+hGkJBd7bM2SNeKp9BzltDPbc574hY8dbx95rZX32gNFC+faMOfRt12OvHdAzHmkPyhJWniLj2pSNeXOgtZYZq/u23l0nZsvCPkhUx7aUDjX1KXBzoIXqmav0vZyB+OfeEI6SB9AgeWi6x1ixhrv0i7H5f3JYGKzpyNrMag5r3CuISvKkmlDey9fOeO+KrHHy3fVuiG9e8ydBVXJ6uKMzV0yTcXOaoZYkcVcRp5vbUvz1b4Atw5bhuz7lWOBqqyIM/Jsq0Mv2TrmrGxqDtRMWaHhIAfLOFCZr42UsIkI1GxtpuGnWxx6E9CpQyWIQkCfbLHrIGcCaKDuqoQNP64B9TGm9XGdBFHQhvwtHdiO+iFrvyNBNKrOhy9rQ3UGDMIkiOOU+aAGM1xgmBPESWHev5AfHZDvBEvARMgmmv3d/UFQwa3aJCWfhSsLIZtoBwYX2/8GCJkl5pzz1SjM2vVfzueTEk+x/sPXPqqmL+9Ib0++bRaM3p27SCcpUbe9f1zXZU4fYDEhqZy40gpSA8Bp64+DdIwgTrDdv18/JbxsS7aYwXSPDWzr/iOI3Lb91mbHdsyH8DADs7y7M2qrGZL3WsHy0Yn6hbixf0mH2cQ6+ZEpJoMnfqhXWUDtT4GpX60fiJ/GbuxAxXVapDyXLvIwdp8VWBDbx9Eahfje3ptdZmCy2QQyhzcjH8LrTN5hBfjwRPVDfLl7KW/b3GYJZFQa3moHUZTmSJSrzQBfIMTRKoH4RHSZC0E18xL/CKuZQ7NiRxjbNqepnANXDjKaKg/ExRtXrLVJEj8fEGySdrQTYHBo9/F3OfMYQkOFSTiMrcx1ammRCVi5IAKUaG/4TEO8VNK+Xhr2FcEIoqgaPSaFIAqa+QELQaRwrgDjVe8Josjwj2kHVpASBY0gCprSNC9dcYogGg9mPyUWEXwYxs3zezcQROMWwy62L/sBWqgqTIFH8GfnGWeOrwtBSszfeCUref5ZE4u5EcT8FKgd6HP2Ofv6aMRiuC8oyeedu3fKcmDUJuZWoP/C83+c9jgpgji5RRGg75ILuvMqZkkQTxmFILzAQufugs4hJIhjmTfkueiHoJEXW0h5EODHh15x8S7DFT7rFWIE4YVvWPBdUap51g1Eva8X5uPepQujRa1+XOsQo2nVSZGORdtnrGy0pQahabW2V3q3bSjVh1qqHJiiQ4s9dPWWslV+t1Q4pEz3I5a5xTZNeeq6zRV1DkG5IMqTNPzKR+2bqvIokv8FGAARjXHuYJCUOAAAAABJRU5ErkJggg==;" vertex="1" parent="1">
          <mxGeometry x="586.3199999999999" y="490" width="94.92" height="150" as="geometry" />
        </mxCell>
        <mxCell id="uTMzhVTNKQnZPhbrhFbp-13" value="" style="endArrow=classic;html=1;rounded=0;exitX=1;exitY=0.5;exitDx=0;exitDy=0;entryX=-0.005;entryY=0.496;entryDx=0;entryDy=0;entryPerimeter=0;startArrow=none;" edge="1" parent="1" source="uTMzhVTNKQnZPhbrhFbp-20" target="uTMzhVTNKQnZPhbrhFbp-4">
          <mxGeometry width="50" height="50" relative="1" as="geometry">
            <mxPoint x="560" y="560" as="sourcePoint" />
            <mxPoint x="540" y="450" as="targetPoint" />
          </mxGeometry>
        </mxCell>
        <mxCell id="uTMzhVTNKQnZPhbrhFbp-14" value="" style="endArrow=classic;html=1;rounded=0;entryX=0;entryY=0.5;entryDx=0;entryDy=0;entryPerimeter=0;exitX=0.997;exitY=0.498;exitDx=0;exitDy=0;exitPerimeter=0;" edge="1" parent="1" source="uTMzhVTNKQnZPhbrhFbp-4" target="uTMzhVTNKQnZPhbrhFbp-3">
          <mxGeometry width="50" height="50" relative="1" as="geometry">
            <mxPoint x="610" y="230" as="sourcePoint" />
            <mxPoint x="550" y="500" as="targetPoint" />
          </mxGeometry>
        </mxCell>
        <mxCell id="uTMzhVTNKQnZPhbrhFbp-17" value="" style="curved=1;endArrow=classic;html=1;rounded=0;entryX=1;entryY=0.25;entryDx=0;entryDy=0;" edge="1" parent="1" source="uTMzhVTNKQnZPhbrhFbp-4" target="uTMzhVTNKQnZPhbrhFbp-12">
          <mxGeometry width="50" height="50" relative="1" as="geometry">
            <mxPoint x="350" y="320" as="sourcePoint" />
            <mxPoint x="400" y="270" as="targetPoint" />
            <Array as="points">
              <mxPoint x="830" y="390" />
            </Array>
          </mxGeometry>
        </mxCell>
        <mxCell id="uTMzhVTNKQnZPhbrhFbp-18" value="" style="curved=1;endArrow=classic;html=1;rounded=0;entryX=-0.007;entryY=0.665;entryDx=0;entryDy=0;entryPerimeter=0;exitX=0;exitY=0.25;exitDx=0;exitDy=0;" edge="1" parent="1" source="uTMzhVTNKQnZPhbrhFbp-12" target="uTMzhVTNKQnZPhbrhFbp-4">
          <mxGeometry width="50" height="50" relative="1" as="geometry">
            <mxPoint x="350" y="320" as="sourcePoint" />
            <mxPoint x="400" y="270" as="targetPoint" />
            <Array as="points">
              <mxPoint x="230" y="410" />
            </Array>
          </mxGeometry>
        </mxCell>
        <mxCell id="uTMzhVTNKQnZPhbrhFbp-20" value="trigger" style="text;html=1;resizable=0;autosize=1;align=center;verticalAlign=middle;points=[];fillColor=none;strokeColor=none;rounded=0;fontFamily=Helvetica;fontSize=16;" vertex="1" parent="1">
          <mxGeometry x="430" y="274" width="60" height="20" as="geometry" />
        </mxCell>
        <mxCell id="uTMzhVTNKQnZPhbrhFbp-21" value="" style="endArrow=none;html=1;rounded=0;exitX=1;exitY=0.5;exitDx=0;exitDy=0;entryX=-0.005;entryY=0.496;entryDx=0;entryDy=0;entryPerimeter=0;" edge="1" parent="1" source="uTMzhVTNKQnZPhbrhFbp-1" target="uTMzhVTNKQnZPhbrhFbp-20">
          <mxGeometry width="50" height="50" relative="1" as="geometry">
            <mxPoint x="347.9999999999998" y="284" as="sourcePoint" />
            <mxPoint x="449.2621999999999" y="283.5160000000001" as="targetPoint" />
          </mxGeometry>
        </mxCell>
      </root>
    </mxGraphModel>
  </diagram>
</mxfile>
